<svg width="16" height="19" viewBox="0 0 16 19" fill="none" xmlns="http://www.w3.org/2000/svg">
<path fill-rule="evenodd" clip-rule="evenodd" d="M9.42 0H6C2.68629 0 0 2.68629 0 6V9.4C0 12.7137 2.68629 15.4 6 15.4H9.42C12.7337 15.4 15.42 12.7137 15.42 9.4V6C15.42 2.68629 12.7337 0 9.42 0ZM13.92 9.4C13.9145 11.883 11.903 13.8945 9.42 13.9H6C3.517 13.8945 1.5055 11.883 1.5 9.4V6C1.5055 3.517 3.517 1.5055 6 1.5H9.42C11.903 1.5055 13.9145 3.517 13.92 6V9.4Z" fill="#196FEB"/>
<path d="M2.2101 17.45H13.2101C13.6243 17.45 13.9601 17.7857 13.9601 18.2C13.9601 18.6142 13.6243 18.95 13.2101 18.95H2.2101C1.79588 18.95 1.4601 18.6142 1.4601 18.2C1.4601 17.7857 1.79588 17.45 2.2101 17.45Z" fill="#196FEB"/>
</svg>
