<svg width="18" height="20" viewBox="0 0 18 20" fill="none" xmlns="http://www.w3.org/2000/svg">
<path fill-rule="evenodd" clip-rule="evenodd" d="M10.46 0.379237L16.46 3.70924C17.4136 4.24045 18.0034 5.24769 18 6.33924V12.7992C18.0034 13.8908 17.4136 14.898 16.46 15.4292L10.46 18.7592C9.55235 19.2649 8.44768 19.2649 7.54001 18.7592L1.54001 15.4292C0.586444 14.898 -0.00334366 13.8908 1.42627e-05 12.7992V6.33924C-0.00334366 5.24769 0.586444 4.24045 1.54001 3.70924L7.54001 0.379237C8.44768 -0.126412 9.55235 -0.126412 10.46 0.379237ZM15.69 14.1192C16.1638 13.8481 16.4572 13.3451 16.46 12.7992V6.33924C16.4572 5.79338 16.1638 5.29038 15.69 5.01924L9.69001 1.68924C9.23618 1.43641 8.68384 1.43641 8.23001 1.68924L2.23001 5.01924C1.75626 5.29038 1.46283 5.79338 1.46001 6.33924V12.7992C1.46283 13.3451 1.75626 13.8481 2.23001 14.1192L8.23001 17.4492C8.68384 17.7021 9.23618 17.7021 9.69001 17.4492L15.69 14.1192Z" fill="#196FEB"/>
<path d="M13.68 5.76924L9.45003 8.11924C9.17157 8.28001 8.82849 8.28001 8.55003 8.11924L4.32003 5.76924C4.08552 5.632 3.79511 5.63233 3.56092 5.77011C3.32672 5.90789 3.18536 6.16156 3.1914 6.43321C3.19744 6.70487 3.34994 6.952 3.59003 7.07924L7.82003 9.42924C7.96035 9.50371 8.10774 9.56401 8.26003 9.60924V14.0692C8.26003 14.4834 8.59582 14.8192 9.01003 14.8192C9.42424 14.8192 9.76003 14.4834 9.76003 14.0692V9.56924C9.90619 9.52917 10.0471 9.47211 10.18 9.39924L14.41 7.04924C14.7622 6.84314 14.885 6.3933 14.6864 6.03685C14.4877 5.68041 14.0406 5.54817 13.68 5.73924V5.76924Z" fill="#196FEB"/>
</svg>
