<svg width="20" height="18" viewBox="0 0 20 18" fill="none" xmlns="http://www.w3.org/2000/svg">
<path fill-rule="evenodd" clip-rule="evenodd" d="M19.6903 11.67L19.8303 12.36C19.9828 12.9494 19.8584 13.5762 19.4925 14.0628C19.1266 14.5494 18.5589 14.8429 17.9503 14.86H14.1403C14.1412 16.4786 12.858 17.806 11.2403 17.86H2.9503C2.03484 17.8448 1.17642 17.4124 0.619309 16.6858C0.0621959 15.9593 -0.132618 15.018 0.0903007 14.13L0.300301 13.13C0.544485 11.7524 1.73144 10.7416 3.1303 10.72H11.0703C11.4247 10.2965 11.9481 10.0512 12.5003 10.05H17.7903C18.7243 10.0798 19.5132 10.7524 19.6903 11.67ZM17.9303 13.35C18.0523 13.3455 18.1659 13.2868 18.2403 13.19C18.3711 13.058 18.437 12.8751 18.4203 12.69L18.2803 12C18.2532 11.7765 18.0744 11.6018 17.8503 11.58H12.5603C12.4452 11.5808 12.3374 11.6365 12.2703 11.73C11.9835 12.0603 11.5677 12.2499 11.1303 12.25H3.1903C2.50571 12.2667 1.93209 12.7728 1.8303 13.45L1.6203 14.45C1.51773 14.9425 1.63857 15.4551 1.9503 15.85C2.1938 16.1571 2.55874 16.3432 2.9503 16.36H11.2103C12.0151 16.3066 12.6336 15.6262 12.6103 14.82C12.6266 14.0033 13.2934 13.3498 14.1103 13.35H17.9303Z" fill="#196FEB"/>
<path fill-rule="evenodd" clip-rule="evenodd" d="M11.0503 4.93C11.0503 7.13914 9.25944 8.93 7.0503 8.93C4.84116 8.93 3.0503 7.13914 3.0503 4.93V3.36C3.0503 1.50432 4.55462 0 6.4103 0H7.7203C9.56425 0.0164645 11.0504 1.51598 11.0503 3.36V4.93ZM6.4103 1.5C5.38305 1.5 4.5503 2.33275 4.5503 3.36L4.5803 4.93C4.73989 6.18917 5.81105 7.13314 7.0803 7.13314C8.34954 7.13314 9.42071 6.18917 9.5803 4.93V3.36C9.5803 2.33275 8.74755 1.5 7.7203 1.5H6.4103Z" fill="#196FEB"/>
<path fill-rule="evenodd" clip-rule="evenodd" d="M18.6303 5.18C18.6303 6.83685 17.2872 8.18 15.6303 8.18C13.9734 8.18 12.6303 6.83685 12.6303 5.18V4.03C12.6301 2.65371 13.7342 1.53185 15.1103 1.51H16.1103C17.5021 1.51 18.6303 2.63824 18.6303 4.03V5.18ZM15.1303 3.03C14.578 3.03 14.1303 3.47772 14.1303 4.03V5.18C14.1303 6.00843 14.8019 6.68 15.6303 6.68C16.4587 6.68 17.1303 6.00843 17.1303 5.18V4.03C17.1303 3.47772 16.6826 3.03 16.1303 3.03H15.1303Z" fill="#196FEB"/>
</svg>
