<svg width="16" height="16" viewBox="0 0 16 16" fill="none" xmlns="http://www.w3.org/2000/svg">
<path fill-rule="evenodd" clip-rule="evenodd" d="M10.7936 0.609708L15.3436 5.15971C16.175 5.99469 16.175 7.34473 15.3436 8.17971L12.5536 10.9697C12.395 11.1333 12.2604 11.3185 12.1536 11.5197L10.6136 14.6097C10.3037 15.2231 9.71924 15.6514 9.041 15.7621C8.36276 15.8728 7.67246 15.6527 7.18357 15.1697L4.51357 12.4997L1.28357 15.7297C1.14369 15.8713 0.952636 15.9507 0.75357 15.9497C0.553818 15.9542 0.361411 15.8744 0.22357 15.7297C0.0806222 15.5904 0 15.3993 0 15.1997C0 15.0001 0.0806222 14.809 0.22357 14.6697L3.45357 11.4397L0.78357 8.76971C0.296281 8.28277 0.0732012 7.59102 0.184202 6.91114C0.295204 6.23126 0.726712 5.64638 1.34357 5.33971L4.43357 3.79971C4.63482 3.69293 4.81998 3.55827 4.98357 3.39971L7.79357 0.609708C8.62835 -0.203236 9.95879 -0.203236 10.7936 0.609708ZM11.4236 9.82971L14.2036 7.04971C14.4205 6.84758 14.4339 6.50831 14.2336 6.28971L9.69357 1.74971C9.59378 1.64707 9.45672 1.58917 9.31357 1.58917C9.17042 1.58917 9.03336 1.64707 8.93357 1.74971L6.15357 4.52971C5.86141 4.81694 5.52345 5.05351 5.15357 5.22971L2.06357 6.77971C1.90719 6.85233 1.7981 6.99905 1.77357 7.16971C1.74111 7.33864 1.79777 7.51239 1.92357 7.62971L8.32357 14.0297C8.41824 14.1337 8.55299 14.1919 8.69357 14.1897C8.89875 14.1932 9.08678 14.0757 9.17357 13.8897L10.7236 10.8297C10.8998 10.4598 11.1363 10.1219 11.4236 9.82971Z" fill="#BC0F0F"/>
</svg>
