<svg width="20" height="20" viewBox="0 0 20 20" fill="none" xmlns="http://www.w3.org/2000/svg">
<path fill-rule="evenodd" clip-rule="evenodd" d="M5.71 12.3803L6.44 8.97028C6.54627 8.49641 6.78566 8.06274 7.13 7.72028L13.8 1.11028C14.4764 0.421256 15.3947 0.023063 16.36 0.000280562C17.088 -0.0101505 17.79 0.270654 18.31 0.780281C19.4462 2.12275 19.2995 4.1275 17.98 5.29028L11.31 11.9603C10.9675 12.3046 10.5339 12.544 10.06 12.6503L6.65 13.3803H6.46C6.21071 13.3898 5.97261 13.2764 5.82292 13.0768C5.67324 12.8773 5.63103 12.6169 5.71 12.3803ZM8.19 8.79028C8.04988 8.92606 7.95255 9.09987 7.91 9.29028L7.42 11.6203L9.75 11.1203C9.94041 11.0777 10.1142 10.9804 10.25 10.8403L16.92 4.17028C17.6507 3.5853 17.7957 2.53076 17.25 1.77028C17.0111 1.54199 16.6903 1.41945 16.36 1.43028C15.7906 1.45315 15.2525 1.69708 14.86 2.11028L8.19 8.79028Z" fill="#196FEB"/>
<path d="M17.83 8.04028C17.418 8.04567 17.0854 8.37832 17.08 8.79028V14.4803C17.0934 15.2846 16.7833 16.0605 16.2192 16.634C15.6551 17.2075 14.8844 17.5304 14.08 17.5303H4.55C2.88737 17.4977 1.55511 16.1432 1.55 14.4803V4.99028C1.5773 3.32537 2.93487 1.99006 4.6 1.99028H10.29C10.7042 1.99028 11.04 1.65449 11.04 1.24028C11.04 0.826067 10.7042 0.490281 10.29 0.490281H4.55C2.0565 0.49013 0.0274011 2.49693 0 4.99028V14.4803C0 16.9932 2.0371 19.0303 4.55 19.0303H14.04C16.549 19.0248 18.58 16.9893 18.58 14.4803V8.79028C18.5746 8.37832 18.242 8.04567 17.83 8.04028Z" fill="#196FEB"/>
</svg>
